# xmcd CD database file
#
# Track frame offsets:
#	150
#	18374
#	46405
#	65496
#	91843
#	110632
#	140657
#	155630
#	189600
#	205905
#	238265
#
# Disc length: 3491 seconds
#
# Revision: 0
# Processed by: cddbd v1.5.2PL0 Copyright (c) Steve Scherf et al.
# Submitted via: CDex 1.51
#
DISCID=9e0da10b
DTITLE=Kristin Korb - Why Can't You Behave
DYEAR=2006
DGENRE=Jazz
TTITLE0=You Stepped Out of a Dream
TTITLE1=Why Can't You Behave
TTITLE2=Ev'rything I've Got
TTITLE3=Don't Get Around Much Anymore
TTITLE4=May I Come In
TTITLE5=Day-Dream
TTITLE6=You're Blase'
TTITLE7=Summer (Estate)
TTITLE8=I'm Gonna Lock My Heart ad Throw Away the Key
TTITLE9=Cubano
TTITLE10=Nobody Wants to Sing The Blues
EXTD=YEAR: 2006
EXTT0=
EXTT1=
EXTT2=
EXTT3=
EXTT4=
EXTT5=
EXTT6=
EXTT7=
EXTT8=
EXTT9=
EXTT10=
PLAYORDER=
